<svg id="Layer_1" data-name="Layer 1" xmlns="http://www.w3.org/2000/svg" width="986" height="1072" viewBox="0 0 986 1072">
  <g>
    <path d="M345,5c4.73,1.14,9.51,2.08,14.17,3.46A89.84,89.84,0,0,1,423.1,99.67c-.12,2.15-.31,4.3-.52,7.16H428q43,0,86,0c29,0,48.95,19.87,49,48.9q.08,75.49,0,151v5.05c-11.33-1.08-22.17-1.6-32.81-3.31-7.13-1.13-14.12-3.57-20.94-6.07-21-7.69-40.44,1.95-46.75,23.48-7.07,24.11,10.61,49.79,34.4,48.92,7.25-.27,14.55-3.2,21.51-5.76,13.58-5,26.93-10.58,40.38-15.9,1.2-.47,2.46-.8,4.08-1.32V510.74h95.61c-3.8-35.07,8.91-63.11,37.2-83.08,32-22.62,66.88-24.75,101.3-6.19,34.86,18.8,50.37,49.27,47.32,89.6H944.72q39.91,0,50.52,38.44c.06.21.5.33.76.49V715c-18-1.4-36.2-.89-53.39-8-8.31-3.44-16.9-5.55-26.2-3.13-20.91,5.43-34.12,24.26-30.28,43.83,3.75,19.18,25.63,34.25,45.77,30.14,12.26-2.5,24.08-7.28,36-11.2,9.4-3.08,18.71-6.41,28.06-9.63V925c-.33.31-.89.58-1,1-3.81,20.72-24.54,37.84-51.11,37.23-32.44-.74-64.92-.18-97.38-.18h-5.94c4.23,12.86,5.53,25.56,2.89,38.32-8,39-32.44,62.36-70.22,72.63-5,1.36-10.18,2-15.28,3H742a7,7,0,0,0-2-1c-23-3-42.65-12.54-58.43-29.52-17.13-18.43-25.73-40.18-23.46-65.56.53-6,2.44-11.8,3.76-17.94-36.46,0-72.62,0-108.78,0-3,0-6.13.25-8.94-.55-8.24-2.33-16.26-3.36-24.46.21-2,.88-4.61.62-6.93.62q-73.24.06-146.5.1c-2.72,0-3.77-.89-4.24-3.52-1.15-6.38-2.58-12.71-3.94-19.05a50.2,50.2,0,0,1,2.77-30.34c2-4.74,3.46-9.69,5.11-14.56,2.91-8.57.69-16.17-5-22.75-8.47-9.86-19.43-12.53-31.66-9.2-16.28,4.43-23.34,18.61-17.49,34.25.87,2.33,1.84,4.63,2.72,7,3.39,9,5.74,18.31,3.44,27.82-2.17,9-5.55,17.69-8.21,26.58-.93,3.12-2.66,3.84-5.77,3.83-48.5-.1-97,0-145.5-.1-28.35,0-48-19.89-48-48.13q0-43.24,0-86.5V823c-8.79,0-17.16.89-25.28-.15-35.34-4.54-65.93-33.24-73.28-68A54.08,54.08,0,0,0,10,749V724a28.53,28.53,0,0,0,1.75-4.32c7.38-32.6,27.48-53.9,58.42-65.3,12.8-4.72,26.21-5.65,40.32-4V644.6c0-27.66-.12-55.33.1-83,0-5.42,1.5-10.82,2-16.25.18-1.76.08-4-.84-5.33a51.14,51.14,0,0,1-8.53-29.23q.06-71.49,0-143V362.4c3.58-.78,6.64-1.56,9.74-2.11,10.27-1.82,20.45-5.71,31-3.23,7.88,1.86,15.43,5.07,23.29,7.07,5.2,1.33,10.91,2.93,16,2,14.91-2.63,24.49-16.65,23.06-32-1.85-19.91-19-30.91-37.54-24.09-3,1.08-5.83,2.37-8.8,3.43-8.92,3.17-18.14,4.95-27.44,2.61-8.34-2.1-16.35-5.45-24.64-7.78-3.77-1.05-4.78-2.79-4.77-6.58.14-48.66.06-97.33.14-146a55.11,55.11,0,0,1,1.24-12.38c5.26-22.3,23-36.37,46.19-36.48,30.33-.16,60.67,0,91,0h5.29c0-9-.83-17.36.15-25.52,4.18-34.95,33.49-66.64,67.9-74.16C318.08,6.5,321,5.72,324,5ZM558.51,652.6c41.92-8.63,76.08,3.13,99.12,38.93,19.76,30.71,19.06,63.51-2,93.35-23.48,33.3-56.35,45.51-97.14,35.39v5.27c0,26.66.12,53.33-.06,80-.06,9.08-.85,18.16-1.32,27.47H686.21c7.34,0,8.86.78,11,7.86,1,3.38,1.71,7.36.94,10.71a112.1,112.1,0,0,1-6,17.31c-5.4,13.08-6,26-.31,39.23,14.23,33.09,54.3,47.75,87.34,32.44,22.24-10.31,44.39-38.34,31.78-72.59-1.72-4.68-3.65-9.29-5-14.06a35.37,35.37,0,0,1-1.79-10.67c.2-7.23,3.71-10.23,10.84-10.23,43.33,0,86.66-.24,130,.16,11.42.1,21.53-6.21,21.28-21-.6-35.65-.19-71.32-.19-107v-5.6c-6.94,2.13-13.25,4.11-19.58,6-32.71,9.77-66-5.63-81.24-30.86-26.38-43.65,3.45-96.2,54.53-101.78,13.23-1.44,25.25,3.06,37.38,7.16,2.78,1,5.61,1.74,8.91,2.75V561.71c0-14.14-6.54-20.63-20.8-20.63H803.55c.74-3,1.2-5.55,2-8,1.95-5.82,4.13-11.56,6.11-17.37a51.77,51.77,0,0,0-1.32-38C792.32,435,731.8,426,702,461.8c-13.66,16.4-18.76,34.57-10,55.14a112.33,112.33,0,0,1,4.63,11.56c1.17,3.86,1.69,7.92,2.64,12.64h-143c.76,8.88,2,17.24,2.07,25.62.27,26.83.1,53.66.1,80.49Zm-162.15-109c1.21,3.35,2.13,6,3.13,8.62,5.59,14.65,8,29.45,2.95,44.86-10.55,32.43-45.58,52.12-79.12,44.3-30.17-7-51.41-31.35-52.52-60.13-.38-10.1,3.33-19.22,6.81-28.41,1.09-2.86,2-5.8,3.06-9.08a35.1,35.1,0,0,0-3.67-.46c-39.5,0-79-.09-118.5,0-11.73,0-17.89,6.69-17.89,18.57q0,60.51,0,121v6.68c-3.42-.73-6.16-1.13-8.79-1.92-5.41-1.63-10.74-3.54-16.13-5.22a56.84,56.84,0,0,0-37.25.8c-29.4,10.73-45,41.82-35.8,70.44,9,28,42.81,48.1,70.9,37.31,4.66-1.78,9.31-3.62,14.1-5,4-1.14,8.17-1.62,13-2.53V913.2c0,14.51,5.44,20,19.78,20,40.67,0,81.33-.1,122,.15,4.8,0,6.17-1.87,6.28-5.89a15.28,15.28,0,0,0-.37-4.93q-2.7-8.55-5.79-17c-3.09-8.42-4.87-16.94-3-25.93,6.81-33,40.43-53.58,73.45-45.31,29.91,7.49,53.21,39.12,40.94,72.93-1.81,5-3.84,9.94-5.37,15-1,3.34-1.3,6.9-2,10.92H508.61c14,0,19.78-5.75,19.78-19.62,0-39.67.1-79.33-.11-119,0-4.72,2-7,5.79-8.66,7-3,13.88-2.18,20.84.49,12.12,4.64,24.1,9.19,37.74,6.7,28.53-5.21,49.84-31.22,48.26-59.85-1.55-28.08-25.94-51.84-54.62-53.52-13.06-.77-24.78,4.05-36.9,7.6a36.74,36.74,0,0,1-14.13,1c-4.6-.52-7.06-3.36-7-9,.28-38.83.17-77.66.1-116.49a27.21,27.21,0,0,0-1.23-9.3c-3-8-9.67-10.4-17.6-10.4q-54.25,0-108.5,0C399.73,543.29,398.44,543.45,396.36,543.59Zm-83-30.3c-1.8,19.66-1.78,41.58-9.61,55.79a23,23,0,0,0-1.21,19.79c7.18,19.41,29.91,29.27,49.86,21.35,18.4-7.3,26.8-24.65,20.35-43.23-4.31-12.4-9.46-24.51-14.24-36.74-2.16-5.52-4.36-11-6.71-17h6.09c49,0,98-.13,147,.13,9,.05,18,1.71,27.5,2.67v-120c-2.21.81-4.64,1.74-7.1,2.62-13.77,4.91-27.61,8.46-42.45,4.8a68.6,68.6,0,0,1-50.46-81.14c6.69-30.21,31.86-52.13,61.66-53.55,11.12-.53,21.09,3.95,31.21,7.66,2.4.87,4.87,1.53,7.74,2.42V273.6c0-39-.19-78,.13-117,.09-10.37-5.69-20.11-20-19.95-41.49.46-83,.16-124.48.16h-5.94c1.21-4.16,2.17-7.31,3-10.48,2.47-9.12,6.21-18.12,7.12-27.4,3.77-38.61-31.06-70-69.21-62.85-33,6.21-56.12,43.3-44.32,73.82,1.8,4.64,3.75,9.25,5.1,14,1.14,4,1.52,8.24,2.33,12.89h-6.58c-42.33,0-84.66.29-127-.17-13.63-.14-20.06,8.84-20,19.92.31,41.16.13,82.32.13,123.48v5.34c5.81,2.33,11.14,1.87,16.44-.14,4.19-1.59,8.36-3.26,12.58-4.77,8.23-2.95,16.57-4.75,25.42-3a60.58,60.58,0,0,1,40.74,89.78c-12.24,21.43-36.58,33.36-59.36,28.47-7.9-1.7-15.43-5.06-23.22-7.35-4-1.16-8.11-1.65-12.34-2.47-1.84,31.88-.78,127.7,1.44,133,8.74-4.78,18.22-5.71,28-5.69q72.24.15,144.47,0Z" transform="translate(-10 -5)" style="fill: #020202"/>
    <path d="M558.51,652.6v-5.35c0-26.83.17-53.66-.1-80.49-.08-8.38-1.31-16.74-2.07-25.62h143c-.95-4.72-1.47-8.78-2.64-12.64A112.33,112.33,0,0,0,692,516.94c-8.79-20.57-3.69-38.74,10-55.14C731.8,426,792.32,435,810.36,477.75a51.77,51.77,0,0,1,1.32,38c-2,5.81-4.16,11.55-6.11,17.37-.82,2.43-1.28,5-2,8H945.2c14.26,0,20.8,6.49,20.8,20.63V682.87c-3.3-1-6.13-1.8-8.91-2.75-12.13-4.1-24.15-8.6-37.38-7.16-51.08,5.58-80.91,58.13-54.53,101.78,15.26,25.23,48.53,40.63,81.24,30.86,6.33-1.89,12.64-3.87,19.58-6v5.6c0,35.67-.41,71.34.19,107,.25,14.76-9.86,21.07-21.28,21-43.33-.4-86.66-.16-130-.16-7.13,0-10.64,3-10.84,10.23a35.37,35.37,0,0,0,1.79,10.67c1.4,4.77,3.33,9.38,5,14.06,12.61,34.25-9.54,62.28-31.78,72.59-33,15.31-73.11.65-87.34-32.44-5.67-13.19-5.09-26.15.31-39.23a112.1,112.1,0,0,0,6-17.31c.77-3.35.1-7.33-.94-10.71-2.15-7.08-3.67-7.86-11-7.86H557.13c.47-9.31,1.26-18.39,1.32-27.47.18-26.66.06-53.33.06-80v-5.27c40.79,10.12,73.66-2.09,97.14-35.39,21-29.84,21.74-62.64,2-93.35C634.59,655.73,600.43,644,558.51,652.6Z" transform="translate(-10 -5)" style="fill: #fbf6f7"/>
    <path d="M396.36,543.59c2.08-.14,3.37-.3,4.66-.3q54.26,0,108.5,0c7.93,0,14.6,2.39,17.6,10.4a27.21,27.21,0,0,1,1.23,9.3c.07,38.83.18,77.66-.1,116.49,0,5.61,2.41,8.45,7,9a36.74,36.74,0,0,0,14.13-1c12.12-3.55,23.84-8.37,36.9-7.6,28.68,1.68,53.07,25.44,54.62,53.52,1.58,28.63-19.73,54.64-48.26,59.85-13.64,2.49-25.62-2.06-37.74-6.7-7-2.67-13.8-3.52-20.84-.49-3.84,1.66-5.82,3.94-5.79,8.66.21,39.67.12,79.33.11,119,0,13.87-5.8,19.61-19.78,19.62H386.49c.72-4,1-7.58,2-10.92,1.53-5.09,3.56-10,5.37-15,12.27-33.81-11-65.44-40.94-72.93-33-8.27-66.64,12.33-73.45,45.31-1.86,9-.08,17.51,3,25.93q3.09,8.42,5.79,17a15.28,15.28,0,0,1,.37,4.93c-.11,4-1.48,5.91-6.28,5.89-40.67-.25-81.33-.13-122-.15-14.34,0-19.78-5.54-19.78-20V783.47c-4.8.91-9,1.39-13,2.53-4.79,1.37-9.44,3.21-14.1,5-28.09,10.79-61.91-9.35-70.9-37.31-9.2-28.62,6.4-59.71,35.8-70.44a56.84,56.84,0,0,1,37.25-.8c5.39,1.68,10.72,3.59,16.13,5.22,2.63.79,5.37,1.19,8.79,1.92V682.9q0-60.49,0-121c0-11.88,6.16-18.53,17.89-18.57,39.5-.13,79-.05,118.5,0a35.1,35.1,0,0,1,3.67.46c-1.09,3.28-2,6.22-3.06,9.08-3.48,9.19-7.19,18.31-6.81,28.41,1.11,28.78,22.35,53.1,52.52,60.13,33.54,7.82,68.57-11.87,79.12-44.3,5-15.41,2.64-30.21-2.95-44.86C398.49,549.59,397.57,546.94,396.36,543.59Z" transform="translate(-10 -5)" style="fill: #47a2b9"/>
    <path d="M313.32,513.29h-5.85q-72.24,0-144.47,0c-9.77,0-19.25.91-28,5.69-2.22-5.27-3.28-101.09-1.44-133,4.23.82,8.38,1.31,12.34,2.47,7.79,2.29,15.32,5.65,23.22,7.35,22.78,4.89,47.12-7,59.36-28.47a60.58,60.58,0,0,0-40.74-89.78c-8.85-1.79-17.19,0-25.42,3-4.22,1.51-8.39,3.18-12.58,4.77-5.3,2-10.63,2.47-16.44.14v-5.34c0-41.16.18-82.32-.13-123.48-.08-11.08,6.35-20.06,20-19.92,42.32.46,84.65.17,127,.17h6.58c-.81-4.65-1.19-8.88-2.33-12.89-1.35-4.77-3.3-9.38-5.1-14-11.8-30.52,11.33-67.61,44.32-73.82,38.15-7.17,73,24.24,69.21,62.85-.91,9.28-4.65,18.28-7.12,27.4-.86,3.17-1.82,6.32-3,10.48h5.94c41.49,0,83,.3,124.48-.16,14.27-.16,20,9.58,20,19.95-.32,39-.13,78-.13,117v5.27c-2.87-.89-5.34-1.55-7.74-2.42-10.12-3.71-20.09-8.19-31.21-7.66-29.8,1.42-55,23.34-61.66,53.55a68.6,68.6,0,0,0,50.46,81.14c14.84,3.66,28.68.11,42.45-4.8,2.46-.88,4.89-1.81,7.1-2.62v120c-9.48-1-18.49-2.62-27.5-2.67-49-.26-98-.13-147-.13h-6.09c2.35,5.94,4.55,11.44,6.71,17,4.78,12.23,9.93,24.34,14.24,36.74,6.45,18.58-1.95,35.93-20.35,43.23-19.95,7.92-42.68-1.94-49.86-21.35a23,23,0,0,1,1.21-19.79C311.54,554.87,311.52,533,313.32,513.29Z" transform="translate(-10 -5)" style="fill: #fbf6f7"/>
  </g>
</svg>
